<svg xmlns="http://www.w3.org/2000/svg" viewBox="0 0 200 160" fill="none">
  <circle cx="100" cy="80" r="68" fill="#eaf2eb"/>
  <path d="M45 46h55v34h56M45 120h55V80" stroke="#8fae98" stroke-width="2" stroke-dasharray="4 5"/>
  <rect x="21" y="22" width="48" height="48" rx="12" fill="#fff" stroke="#c9d9ce"/>
  <path d="m45 33 12 7v14l-12 7-12-7V40l12-7Zm0 14v14m-12-21 12 7 12-7" stroke="#567860" stroke-width="2" stroke-linejoin="round"/>
  <g transform="translate(76 56) scale(1.2)">
    <rect width="40" height="40" rx="12" fill="#17654c"/>
    <path d="m11 28 9-17 9 17M15 22h10" stroke="#fff" stroke-width="2.5" stroke-linecap="round" stroke-linejoin="round"/>
    <circle cx="20" cy="11" r="3" fill="#c0e4a2"/>
    <circle cx="11" cy="28" r="3" fill="#c0e4a2"/>
    <circle cx="29" cy="28" r="3" fill="#c0e4a2"/>
  </g>
  <rect x="133" y="56" width="48" height="48" rx="12" fill="#fff" stroke="#c9d9ce"/>
  <ellipse cx="157" cy="71" rx="11" ry="5" stroke="#567860" stroke-width="2"/>
  <path d="M146 71v18c0 7 22 7 22 0V71m-22 9c0 7 22 7 22 0" stroke="#567860" stroke-width="2"/>
  <circle cx="45" cy="120" r="14" fill="#d3e4c9"/>
  <path d="m39 120 4 4 8-9" stroke="#356045" stroke-width="2" stroke-linecap="round" stroke-linejoin="round"/>
</svg>
